<svg width="200" height="200" viewBox="0 0 200 200" fill="none" xmlns="http://www.w3.org/2000/svg">
<path d="M150.03 100C150.03 127.614 127.645 150 100.03 150C72.416 150 50.0303 127.614 50.0303 100C50.0303 72.3858 72.416 50 100.03 50C127.645 50 150.03 72.3858 150.03 100ZM63.4387 100C63.4387 120.209 79.8213 136.592 100.03 136.592C120.239 136.592 136.622 120.209 136.622 100C136.622 79.791 120.239 63.4084 100.03 63.4084C79.8213 63.4084 63.4387 79.791 63.4387 100Z" fill="#1675FF"/>
<path d="M74.5 78.8906L87.3213 79.9743L84.5 92.3906L83.5 82.1115L74.5 78.8906Z" fill="#D9D9D9"/>
<path d="M26.1595 131.286L27.4455 130.514L27.4455 130.514L26.1595 131.286ZM74.5 78.8906L74.6263 77.396C73.8756 77.3325 73.1942 77.8358 73.0342 78.5721C72.8742 79.3083 73.2852 80.049 73.9946 80.3029L74.5 78.8906ZM87.3213 79.9743L88.784 80.3066L89.1662 78.6248L87.4476 78.4796L87.3213 79.9743ZM84.5 92.3906L83.007 92.5359C83.0783 93.2685 83.6706 93.8411 84.4052 93.8876C85.1398 93.9341 85.7996 93.4408 85.9627 92.723L84.5 92.3906ZM60.9905 131.601C56.9673 133.156 49.94 135.434 43.1565 135.977C36.2652 136.529 30.2915 135.253 27.4455 130.514L24.8735 132.058C28.668 138.377 36.3009 139.535 43.3958 138.968C50.5985 138.391 57.9369 135.997 62.072 134.399L60.9905 131.601ZM74.3737 80.3853L87.195 81.4689L87.4476 78.4796L74.6263 77.396L74.3737 80.3853ZM85.8586 79.6419L83.0373 92.0583L85.9627 92.723L88.784 80.3066L85.8586 79.6419ZM27.4455 130.514C26.1858 128.416 26.7674 125.482 29.8002 121.489C32.761 117.59 37.6721 113.228 43.6905 108.722C55.7014 99.7275 71.7339 90.436 84.2343 83.4195L82.7658 80.8034C70.2712 87.8168 54.0796 97.194 41.8923 106.32C35.8114 110.874 30.6297 115.436 27.411 119.674C24.2642 123.818 22.5796 128.237 24.8735 132.058L27.4455 130.514ZM84.2343 83.4195C85.5495 82.6812 86.825 81.9685 88.0519 81.2843L86.5907 78.6642C85.3623 79.3492 84.0843 80.0634 82.7658 80.8034L84.2343 83.4195ZM85.993 92.2454L84.993 81.9662L82.0071 82.2567L83.007 92.5359L85.993 92.2454ZM73.9946 80.3029L82.9946 83.5237L84.0055 80.6992L75.0054 77.4783L73.9946 80.3029Z" fill="black"/>
<path d="M126.852 120.136L114 119.525L116.362 107.013L117.739 117.249L126.852 120.136Z" fill="#D9D9D9"/>
<path d="M173.23 65.996L171.973 66.815L171.973 66.815L173.23 65.996ZM126.852 120.136L126.781 121.634C127.533 121.67 128.196 121.142 128.329 120.4C128.461 119.659 128.023 118.934 127.305 118.706L126.852 120.136ZM114 119.525L112.526 119.247L112.206 120.942L113.928 121.024L114 119.525ZM116.362 107.013L117.848 106.813C117.75 106.084 117.137 105.533 116.401 105.514C115.665 105.494 115.024 106.012 114.888 106.735L116.362 107.013ZM138.411 66.964C142.374 65.262 149.313 62.7261 156.072 61.9337C162.938 61.1287 168.955 62.1833 171.973 66.815L174.487 65.177C170.462 59.0016 162.792 58.1253 155.722 58.9541C148.546 59.7955 141.301 62.4581 137.227 64.2074L138.411 66.964ZM126.923 118.638L114.071 118.027L113.928 121.024L126.781 121.634L126.923 118.638ZM115.474 119.803L117.836 107.292L114.888 106.735L112.526 119.247L115.474 119.803ZM171.973 66.815C173.31 68.8652 172.836 71.8177 169.953 75.9205C167.137 79.9259 162.39 84.4651 156.542 89.1904C144.87 98.6209 129.191 108.496 116.958 115.969L118.521 118.529C130.749 111.06 146.584 101.093 158.427 91.5239C164.336 86.7495 169.347 81.9999 172.407 77.6455C175.399 73.3885 176.92 68.9103 174.487 65.177L171.973 66.815ZM116.958 115.969C115.67 116.755 114.422 117.514 113.221 118.243L114.778 120.807C115.98 120.078 117.231 119.317 118.521 118.529L116.958 115.969ZM114.875 107.213L116.253 117.449L119.226 117.049L117.848 106.813L114.875 107.213ZM127.305 118.706L118.193 115.819L117.286 118.679L126.399 121.566L127.305 118.706Z" fill="black"/>
<circle cx="100.03" cy="100" r="51.5" stroke="black" stroke-width="3"/>
</svg>
